<?xml version="1.0" encoding="UTF-8"?>
<svg version="1.1" viewBox="0 0 2048 1138" width="1280" height="1280" xmlns="http://www.w3.org/2000/svg">
<path transform="translate(0)" d="m0 0h2048v1138h-2048z" fill="#FEFEFD"/>
<path transform="translate(812,193)" d="m0 0 11 1 13 7 14 12 14 14 9 11 12 15 13 19 16 24 13 21 13 23 10 18 15 28 18 37 15 33 3 7v3h2l2-6 15-33 14-30 10-19 13-25 13-23 10-17 14-22 18-27 16-21 9-11 9-10 14-14 14-10 9-4 9-1 8 3 12 7 15 14 11 11 9 11 12 15 14 20 15 23 13 21 15 26 13 24 12 23 12 24 15 33 10 23 12 30 12 34 12 37 9 34 6 27 4 29v39l-3 20-4 14-7 14-9 11-8 6-12 5-8 2h-12l-16-4-15-8-10-8-12-11-11-12-10-14-10-15-9-15-9-16-11-23-4-8-9-21-12-30-12-33-13-41-12-43-6-23-11 41-10 35-15 46-17 44-12 27-12 25-11 21-12 19-9 13-11 14-12 13-11 10-14 9-11 5-12 3h-13l-13-3-15-8-13-9-18-18-13-17-12-18-11-18-10-19-11-24-13-30-15-39-16-49-11-39-9-36-1-2-13 50-13 43-15 44-14 35-9 21-14 29-14 27-9 14-12 17-9 11-14 15-17 13-15 7-14 3h-11l-12-3-11-6-9-8-9-13-6-17-3-15-1-9v-39l4-30 7-33 9-31 16-49 15-39 15-35 12-26 14-29 16-31 13-23 14-24 12-19 13-21 13-18 11-14 11-13 7-8 11-11 12-9 12-6z" fill="#F9580E"/>
<path transform="translate(1184,224)" d="m0 0h11l12 6 10 8 10 9 12 12 7 8 12 15 12 16 14 20 16 25 12 20 16 28 12 22 11 21 11 23 15 33 11 27 11 28 10 28 14 45 5 21h2l3 23v39l-3 20-4 14-7 14-9 11-8 6-12 5-8 2h-12l-16-4-15-8-10-8-12-11-11-12-10-14-10-15-9-15-9-16-11-23-4-8-9-21-12-30-12-33-13-41-12-43-7-26-2-6-5-25-5-22-6-33-4-25-2-26-1-23-1-9v-15l2-26 10-7z" fill="#F31DAE"/>
<path transform="translate(791,234)" d="m0 0h1v40l2 36 6 51 11 57 4 18v8l-13 50-13 43-15 44-14 35-9 21-14 29-14 27-9 14-12 17-9 11-14 15-17 13-15 7-14 3h-11l-12-3-11-6-9-8-9-13-6-17-3-15-1-9v-39l4-30 7-33h2l4-10 5-12 18-49 10-24 15-34 13-28 9-19 12-22 16-30 12-20 14-22 13-20 10-15 10-13 8-10 12-14 18-18z" fill="#F31DAE"/>
<path transform="translate(814,223)" d="m0 0 9 1 14 7 10 8 10 9 10 10 9 11 10 12 13 19 11 15 13 20 14 22 17 28 12 21 14 24 15 28 6 11-3 9-17 45-13 38-11 41-6 27-3 19-2 20v34l2 17 4 17 6 12 9 10v2l-5-2-9-7-16-16-13-17-12-18-11-18-10-19-11-24-13-30-15-39-16-49-11-39-10-39-5-25-11-57-6-51-2-36v-21l1-19 7-6 10-4z" fill="#FD9230"/>
<path transform="translate(812,193)" d="m0 0 11 1 13 7 14 12 14 14 9 11 12 15 13 19 16 24 13 21 13 23 10 18 15 28 18 37 15 33 3 7v3h2l2-6 15-33 14-30 10-19 13-25 13-23 10-17 14-22 18-27 16-21 9-11 9-10 14-14 14-10 9-4 9-1 8 3 12 7 15 14 11 11 9 11 12 15 14 20 15 23 13 21 15 26 13 24 12 23 12 24 15 33 10 23 12 30 12 34 12 37 9 34 6 27v9l-2-3-7-28-15-47-9-24-14-36-11-25-12-26-12-25-10-19-12-22-14-24-13-22-18-27-13-19-12-15-10-13-16-17-9-9-13-10-12-6h-11l-12 5-12 9-10 9-8 7-7 8-10 12-15 20-13 18-17 26-14 22-9 15-15 26-8 14-13 23-14 25-5 7-3-4-17-32-14-24-15-26-15-25-16-25-18-27-13-18-10-14-12-14-11-12-8-8-13-10-14-7-9-1-13 4-11 8-10 8-17 17-9 11-10 12-13 18-12 19-13 20-13 21-14 25-15 28-8 15-13 28-12 26-16 37-23 63-6 12-2 6h-1l1-9 9-31 15-45 18-46 16-36 16-34 11-22 24-44 13-22 12-19 13-21 13-18 11-14 11-13 7-8 11-11 12-9 12-6z" fill="#973018"/>
<path transform="translate(1187,193)" d="m0 0 9 1 11 6 8 6 10 9 13 13 9 11 12 15 14 20 15 23 13 21 15 26 13 24 12 23 12 24 15 33 10 23 12 30 12 34 12 37 9 34 6 27v9l-2-3-7-28-15-47-9-24-14-36-11-25-12-26-12-25-10-19-12-22-14-24-13-22-18-27-13-19-12-15-10-13-16-17-9-9-13-10-12-6h-11l-12 5-7 4-1-2v-6l2-7-1-8-1-4 1-3 11-7z" fill="#971040"/>
<path transform="translate(801,197)" d="m0 0 3 1-4 9-5 10-1 9 3 4-8 7-9 7-17 17-9 11-10 12-13 18-12 19-13 20-13 21-14 25-15 28-8 15-13 28-12 26-16 37-23 63-6 12-2 6h-1l1-9 9-31 15-45 18-46 16-36 16-34 11-22 24-44 13-22 12-19 13-21 13-18 11-14 11-13 7-8 11-11 12-9z" fill="#991141"/>
<path transform="translate(837,521)" d="m0 0 2 2 8 23 5 16v2h-2l-13-40z" fill="#FA6315"/>
</svg>
